<svg width="179" height="17" viewBox="0 0 179 17" fill="none" xmlns="http://www.w3.org/2000/svg">
<path fill-rule="evenodd" clip-rule="evenodd" d="M89.1196 0.0226516C85.9759 0.0226516 84.4321 1.81213 84.4321 4.03198C84.4321 5.23251 84.9355 6.44437 86.2556 7.9054L86.278 7.9507C84.0517 9.03797 83.0224 10.8048 83.0224 12.6169C83.0224 15.0067 84.8236 17 87.5981 17C89.1868 17 91.0551 16.3205 92.7444 15.1199L94.1093 16.6262H97.6781V16.513L94.7693 13.2398C95.9999 11.7562 96.7048 10.1366 96.7048 8.70953C96.7048 6.9427 95.5412 5.76482 93.7289 5.76482C92.7779 5.76482 91.7039 6.04797 90.9991 6.31979L90.9544 6.22918C92.6884 5.27781 93.4156 4.3944 93.4156 3.15989C93.4156 1.39307 91.8606 0 89.1308 0M88.9854 6.77282L88.0121 5.66289C87.1506 4.68887 86.8933 4.08861 86.8933 3.36376C86.8933 2.01599 87.7324 1.25716 89.0525 1.25716C90.3726 1.25716 91.1893 2.04997 91.1893 3.48834C91.1893 4.81346 90.5516 6.07062 88.9854 6.78414M94.0645 12.4584L89.6007 7.44104C90.395 7.11259 91.1669 6.99933 91.8046 6.99933C93.6506 6.99933 94.7805 8.08661 94.7805 9.96669C94.7805 10.8048 94.5567 11.6656 94.0533 12.447M89.0525 15.3125C86.8709 15.3125 85.5284 13.5003 85.5284 11.575C85.5284 10.3744 86.0543 9.25316 86.9157 8.63025L92.0619 14.3611C91.111 14.9387 90.037 15.3125 89.0525 15.3125ZM126.329 0.396402H123.644V16.6376H126.329V9.13991C126.329 7.42971 127.191 6.42172 128.578 6.42172C129.965 6.42172 130.513 7.32778 130.513 8.6982V16.6376H133.198V8.67555C133.198 6.28581 131.968 4.80213 129.607 4.80213C127.918 4.80213 126.989 5.54963 126.464 6.501H126.329V0.396402ZM109.358 0.396402H106.539V12.3904C106.539 14.3384 105.811 15.4937 104.077 15.4937C102.343 15.4937 101.616 14.2592 101.616 12.1526V9.92139L98.7968 10.6349V11.6316C98.7968 14.6669 100.274 16.9887 104.077 16.9887C107.881 16.9887 109.358 14.6669 109.358 11.6316V0.396402ZM27.5324 0.396402H24.8474V16.6376H27.5324V9.13991C27.5324 7.42971 28.3939 6.42172 29.7811 6.42172C31.1684 6.42172 31.7166 7.32778 31.7166 8.6982V16.6376H34.4016V8.67555C34.4016 6.28581 33.1709 4.80213 30.8104 4.80213C29.1211 4.80213 28.1925 5.54963 27.6667 6.501H27.5324V0.396402ZM10.561 0.396402H7.74175V12.3904C7.74175 14.3384 7.01456 15.4937 5.2805 15.4937C3.54644 15.4937 2.81925 14.2592 2.81925 12.1526V9.92139L0 10.6349V11.6316C0 14.6669 1.47675 16.9887 5.2805 16.9887C9.08425 16.9887 10.561 14.6669 10.561 11.6316V0.396402ZM175.409 4.80213C173.719 4.80213 172.791 5.54963 172.265 6.501H172.131V5.03997H169.446V16.6489H172.131V9.15123C172.131 7.44104 172.992 6.43304 174.38 6.43304C175.767 6.43304 176.315 7.33911 176.315 8.70953V16.6489H179V8.68688C179 6.29714 177.769 4.81346 175.409 4.81346M162.297 4.80213C158.728 4.80213 156.748 7.52032 156.748 10.8388C156.748 14.1572 158.728 16.8754 162.297 16.8754C165.866 16.8754 167.846 14.1572 167.846 10.8388C167.846 7.52032 165.866 4.80213 162.297 4.80213ZM162.297 15.5956C160.541 15.5956 159.567 13.8967 159.567 10.8388C159.567 7.78081 160.541 6.08194 162.297 6.08194C164.053 6.08194 165.027 7.75816 165.027 10.8388C165.027 13.9194 164.042 15.5956 162.297 15.5956ZM151.02 4.80213C148.536 4.80213 146.679 5.86676 146.679 8.14324C146.679 10.0686 147.977 11.1106 149.431 11.4843L151.702 12.062C152.911 12.3678 153.459 12.8095 153.459 13.7835C153.459 14.9727 152.642 15.6409 151.21 15.6409C149.666 15.6409 148.872 14.8708 148.615 12.9454L146.198 13.6362C146.332 15.6296 148.156 16.8641 150.908 16.8641C153.985 16.8641 155.64 15.4031 155.64 13.0813C155.64 10.8954 154.164 9.98934 152.62 9.60426L150.438 9.0493C149.342 8.76616 148.872 8.2565 148.872 7.52032C148.872 6.59161 149.644 6.03664 150.807 6.03664C152.172 6.03664 153.011 6.8068 153.135 8.26782L155.406 7.57695C155.126 5.94604 153.56 4.81346 151.031 4.81346M141.32 4.80213C139.631 4.80213 138.703 5.54963 138.177 6.501H138.043V5.03997H135.358V16.6489H138.043V9.15123C138.043 7.44104 138.904 6.43304 140.291 6.43304C141.678 6.43304 142.227 7.33911 142.227 8.70953V16.6489H144.912V8.68688C144.912 6.29714 143.681 4.81346 141.32 4.81346M116.495 4.80213C112.927 4.80213 110.946 7.52032 110.946 10.8388C110.946 14.1572 112.927 16.8754 116.495 16.8754C120.064 16.8754 122.044 14.1572 122.044 10.8388C122.044 7.52032 120.064 4.80213 116.495 4.80213ZM116.495 15.5956C114.739 15.5956 113.766 13.8967 113.766 10.8388C113.766 7.78081 114.739 6.08194 116.495 6.08194C118.252 6.08194 119.225 7.75816 119.225 10.8388C119.225 13.9194 118.241 15.5956 116.495 15.5956ZM76.612 4.80213C74.9227 4.80213 73.9941 5.54963 73.4683 6.501H73.3341V5.03997H70.6491V16.6489H73.3341V9.15123C73.3341 7.44104 74.1955 6.43304 75.5827 6.43304C76.97 6.43304 77.5182 7.33911 77.5182 8.70953V16.6489H80.2032V8.68688C80.2032 6.29714 78.9726 4.81346 76.612 4.81346M63.5002 4.80213C59.9314 4.80213 57.9512 7.52032 57.9512 10.8388C57.9512 14.1572 59.9314 16.8754 63.5002 16.8754C67.0691 16.8754 69.0492 14.1572 69.0492 10.8388C69.0492 7.52032 67.0691 4.80213 63.5002 4.80213ZM63.5002 15.5956C61.7438 15.5956 60.7705 13.8967 60.7705 10.8388C60.7705 7.78081 61.7438 6.08194 63.5002 6.08194C65.2567 6.08194 66.23 7.75816 66.23 10.8388C66.23 13.9194 65.2455 15.5956 63.5002 15.5956ZM52.2121 4.80213C49.7284 4.80213 47.8713 5.86676 47.8713 8.14324C47.8713 10.0686 49.1691 11.1106 50.6234 11.4843L52.8945 12.062C54.1027 12.3678 54.6509 12.8095 54.6509 13.7835C54.6509 14.9727 53.8342 15.6409 52.4022 15.6409C50.8584 15.6409 50.0641 14.8708 49.8068 12.9454L47.3903 13.6362C47.5245 15.6296 49.3481 16.8641 52.1002 16.8641C55.1768 16.8641 56.8325 15.4031 56.8325 13.0813C56.8325 10.8954 55.3557 9.98934 53.8119 9.60426L51.6303 9.0493C50.5339 8.76616 50.0641 8.2565 50.0641 7.52032C50.0641 6.59161 50.836 6.03664 51.9995 6.03664C53.3644 6.03664 54.2034 6.8068 54.3265 8.26782L56.5976 7.57695C56.3291 5.94604 54.7516 4.81346 52.2232 4.81346M42.5237 4.80213C40.8344 4.80213 39.9058 5.54963 39.38 6.501H39.2458V5.03997H36.5607V16.6489H39.2458V9.15123C39.2458 7.44104 40.1072 6.43304 41.4944 6.43304C42.8817 6.43304 43.4299 7.33911 43.4299 8.70953V16.6489H46.1149V8.68688C46.1149 6.29714 44.8842 4.81346 42.5237 4.81346M17.6986 4.80213C14.1298 4.80213 12.1496 7.52032 12.1496 10.8388C12.1496 14.1572 14.1298 16.8754 17.6986 16.8754C21.2674 16.8754 23.2476 14.1572 23.2476 10.8388C23.2476 7.52032 21.2674 4.80213 17.6986 4.80213ZM17.6986 15.5956C15.9422 15.5956 14.9689 13.8967 14.9689 10.8388C14.9689 7.78081 15.9422 6.08194 17.6986 6.08194C19.4551 6.08194 20.4284 7.75816 20.4284 10.8388C20.4284 13.9194 19.4439 15.5956 17.6986 15.5956Z" fill="white"/>
</svg>
