<svg
  width="100"
  height="100"
  viewBox="0 0 100 100"
  xmlns="http://www.w3.org/2000/svg"
>
  <defs>
    <marker
      id="arrow-green"
      viewBox="0 0 10 10"
      refX="8"
      refY="5"
      markerWidth="6"
      markerHeight="6"
      orient="auto-start-reverse"
    >
      <path d="M 0 0 L 10 5 L 0 10 z" fill="#2E7D32" />
    </marker>
    <marker
      id="arrow-orange"
      viewBox="0 0 10 10"
      refX="8"
      refY="5"
      markerWidth="6"
      markerHeight="6"
      orient="auto-start-reverse"
    >
      <path d="M 0 0 L 10 5 L 0 10 z" fill="#FF6B35" />
    </marker>
  </defs>

  {/* Green arrow (top) */}
  <path
    d="M 80 30 A 35 35 0 1 1 30 20"
    stroke="#2E7D32"
    strokeWidth="10"
    fill="none"
    markerEnd="url(#arrow-green)"
  />

  {/* Orange arrow (bottom) */}
  <path
    d="M 20 70 A 35 35 0 1 1 70 80"
    stroke="#FF6B35"
    strokeWidth="10"
    fill="none"
    markerEnd="url(#arrow-orange)"
  />

  {/* Fork and Knife Icon */}
  <g transform="translate(29, 29) scale(1.8)">
    <path
      d="M11 9H9V2H7v7H5V2H3v7c0 2.12 1.66 3.84 3.75 3.97V22h2.5v-9.03C11.34 12.84 13 11.12 13 9V2h-2v7zm5-3v8h2.5v8H21V2c-2.76 0-5 2.24-5 4z"
      fill="#212121"
    />
  </g>
</svg> 